<svg width="56" height="56" viewBox="0 0 56 56" fill="none" xmlns="http://www.w3.org/2000/svg">
<path d="M48.5331 49C41.7664 49 29.9831 43.5167 19.1331 35.35C10.6164 28.9333 0.699768 19.1333 0.699768 12.6C0.699768 10.85 1.39977 9.33333 2.79977 8.28333C3.96643 7.46667 5.4831 7 7.46643 7C14.2331 7 26.0164 12.4833 36.8664 20.65C45.3831 27.0667 55.2998 36.8667 55.2998 43.4C55.2998 45.15 54.5998 46.6667 53.1998 47.7167C52.0331 48.5333 50.5164 49 48.5331 49ZM7.46643 11.55C6.1831 11.55 5.71643 11.7833 5.59977 11.9C5.4831 12.0167 5.36643 12.0167 5.36643 12.4833C5.36643 15.75 11.1998 23.45 21.9331 31.6167C31.9664 39.0833 42.9331 44.3333 48.6498 44.3333C49.9331 44.3333 50.3998 44.1 50.5164 43.9833C50.6331 43.8667 50.7498 43.8667 50.7498 43.4C50.7498 40.1333 44.9164 32.4333 34.1831 24.2667C24.1498 16.8 13.1831 11.55 7.46643 11.55Z" fill="#F99D1D"/>
<path d="M7.35016 48.7667C5.36683 48.7667 3.85016 48.3 2.56683 47.4834C1.28349 46.4334 0.466827 44.9167 0.466827 43.1667C0.466827 36.5167 10.5002 26.8334 19.1335 20.5334C29.9835 12.4834 41.8835 7.1167 48.5335 7.1167C50.5168 7.1167 52.0335 7.58337 53.2002 8.40003C54.4835 9.45003 55.3002 10.9667 55.3002 12.7167C55.3002 19.3667 45.2668 29.05 36.6335 35.35C25.9002 43.4 14.1168 48.7667 7.35016 48.7667ZM48.6502 11.7834C42.9335 11.7834 31.9668 16.9167 21.9335 24.2667C11.0835 32.2 5.13349 40.0167 5.13349 43.1667C5.13349 43.6334 5.25016 43.75 5.36683 43.75C5.48349 43.8667 6.06683 44.1 7.35016 44.1C13.0668 44.1 24.0335 38.9667 34.0668 31.6167C44.9168 23.5667 50.8668 15.8667 50.8668 12.7167C50.8668 12.25 50.7502 12.1334 50.6335 12.1334C50.5168 12.0167 49.9335 11.7834 48.6502 11.7834Z" fill="#F99D1D"/>
<path d="M27.8831 55.4167C20.5331 55.4167 15.0498 43.5167 15.1664 27.8834C15.2831 12.25 20.7664 0.583374 28.1164 0.583374C35.4664 0.583374 40.9498 12.4834 40.8331 28.1167C40.7164 43.6334 35.2331 55.4167 27.8831 55.4167ZM28.1164 5.13337C24.6164 5.13337 19.8331 13.7667 19.7164 27.8834C19.5998 42 24.3831 50.75 27.8831 50.75V53.0834V50.75C31.3831 50.75 36.1664 42.1167 36.2831 28C36.2831 13.8834 31.6164 5.13337 28.1164 5.13337Z" fill="#F99D1D"/>
</svg>
