<svg width="56" height="56" viewBox="0 0 56 56" fill="none" xmlns="http://www.w3.org/2000/svg">
<path d="M12.8334 51.9166C6.06677 51.9166 0.583435 46.4333 0.583435 39.6666C0.583435 32.9 6.06677 27.4166 12.8334 27.4166C19.6001 27.4166 25.0834 32.9 25.0834 39.6666C25.0834 46.4333 19.6001 51.9166 12.8334 51.9166ZM12.8334 31.9666C8.63343 31.9666 5.13344 35.35 5.13344 39.6666C5.13344 43.8666 8.51677 47.3666 12.8334 47.3666C17.1501 47.3666 20.5334 43.9833 20.5334 39.6666C20.5334 35.4666 17.0334 31.9666 12.8334 31.9666ZM43.1668 51.9166C36.4001 51.9166 30.9168 46.4333 30.9168 39.6666C30.9168 32.9 36.4001 27.4166 43.1668 27.4166C49.9334 27.4166 55.4168 32.9 55.4168 39.6666C55.4168 46.4333 49.9334 51.9166 43.1668 51.9166ZM43.1668 31.9666C38.9668 31.9666 35.4668 35.35 35.4668 39.6666C35.4668 43.8666 38.8501 47.3666 43.1668 47.3666C47.3668 47.3666 50.8668 43.9833 50.8668 39.6666C50.8668 35.4666 47.3668 31.9666 43.1668 31.9666Z" fill="#8A2990"/>
<path d="M22.75 42.0001C22.2833 42.0001 21.7 41.8834 21.35 41.5334C20.4167 40.7168 20.1833 39.3168 21 38.2668C21.2333 37.9168 23.8 34.8834 27.7667 34.7668C30.3333 34.6501 32.6667 35.8168 34.8833 38.1501C35.7 39.0834 35.7 40.4834 34.7667 41.4168C33.8333 42.2334 32.4333 42.2334 31.5 41.3001C30.2167 40.0168 29.05 39.3168 27.8833 39.4334C26.0167 39.5501 24.5 41.1834 24.5 41.1834C24.15 41.6501 23.45 42.0001 22.75 42.0001Z" fill="#8A2990"/>
<path d="M3.38328 38.6166C3.14995 38.6166 2.91661 38.6166 2.79995 38.4999C1.63328 38.1499 0.933279 36.8666 1.28328 35.6999L9.21661 8.04992C9.33328 7.81658 9.33328 7.58325 9.44995 7.46658C10.2666 6.06658 12.0166 4.43325 14.1166 4.66658C17.2666 5.01658 18.5499 8.98325 19.0166 10.3832C19.3666 11.5499 18.7833 12.8332 17.4999 13.2999C16.3333 13.6499 15.0499 13.0666 14.5833 11.7832C14.2333 10.4999 13.7666 9.79992 13.5333 9.44992L13.4166 9.56658L5.59995 36.9833C5.36661 38.0333 4.43328 38.6166 3.38328 38.6166Z" fill="#8A2990"/>
<path d="M52.3832 38.15C51.3332 38.15 50.5165 37.45 50.1665 36.5167L42.2332 9.10003L42.1165 8.98336C41.8832 9.33336 41.5332 10.0334 41.0665 11.3167C40.7165 12.4834 39.4332 13.1834 38.1499 12.8334C36.9832 12.4834 36.2832 11.2 36.6332 9.9167C37.0999 8.63336 38.3832 4.55003 41.5332 4.20003C43.6332 3.9667 45.3832 5.60003 46.1999 7.00003C46.3165 7.1167 46.3165 7.35003 46.4332 7.4667L54.4832 35.2334C54.8332 36.4 54.1332 37.6834 52.9665 38.0334C52.8499 38.15 52.6165 38.15 52.3832 38.15Z" fill="#8A2990"/>
</svg>
