<svg width="13" height="9" viewBox="0 0 13 9" fill="none" xmlns="http://www.w3.org/2000/svg">
<path d="M4.3895 0C4.17419 -1.17402e-06 3.9614 0.0463505 3.7656 0.135905C3.56979 0.22546 3.39556 0.356118 3.25475 0.519L0.77975 3.3825C0.60575 3.5805 0.5 3.84 0.5 4.125V6.375C0.5 6.87228 0.697544 7.34919 1.04917 7.70083C1.40081 8.05246 1.87772 8.25 2.375 8.25H3.875C4.37228 8.25 4.84919 8.05246 5.20083 7.70083C5.55246 7.34919 5.75 6.87228 5.75 6.375V5.25H7.25V6.375C7.25 6.87228 7.44754 7.34919 7.79917 7.70083C8.15081 8.05246 8.62772 8.25 9.125 8.25H10.625C11.1223 8.25 11.5992 8.05246 11.9508 7.70083C12.3025 7.34919 12.5 6.87228 12.5 6.375V4.125C12.5 3.80325 12.365 3.51375 12.149 3.309L9.74525 0.5205C9.60449 0.357248 9.43021 0.226251 9.23426 0.136431C9.03831 0.0466107 8.8253 7.71602e-05 8.60975 0H8C7.90054 0 7.80516 0.0395089 7.73483 0.109835C7.66451 0.180161 7.625 0.275544 7.625 0.375C7.625 0.474456 7.66451 0.569839 7.73483 0.640165C7.80516 0.710491 7.90054 0.75 8 0.75H8.60975C8.71753 0.750039 8.82403 0.773306 8.922 0.818216C9.01998 0.863126 9.10712 0.928624 9.1775 1.01025L10.8927 3H8.375C8.07663 3 7.79048 3.11853 7.5795 3.3295C7.36853 3.54048 7.25 3.82663 7.25 4.125V4.5H5.75V4.125C5.75 3.82663 5.63147 3.54048 5.4205 3.3295C5.20952 3.11853 4.92337 3 4.625 3H2.102L3.8225 1.0095C3.89287 0.928107 3.97992 0.862806 4.07775 0.81803C4.17559 0.773255 4.28191 0.750053 4.3895 0.75H5C5.09946 0.75 5.19484 0.710491 5.26517 0.640165C5.33549 0.569839 5.375 0.474456 5.375 0.375C5.375 0.275544 5.33549 0.180161 5.26517 0.109835C5.19484 0.0395089 5.09946 0 5 0H4.3895Z" fill="#999999"/>
</svg>
