<svg width="17" height="16" viewBox="0 0 17 16" fill="none" xmlns="http://www.w3.org/2000/svg">
<path fill-rule="evenodd" clip-rule="evenodd" d="M13.5376 0.420473C14.6118 0.834737 15.4603 1.68278 15.877 2.75525C16.1151 3.3833 16.2395 4.0495 16.251 4.7219C16.3008 5.57083 16.3008 5.84582 16.3008 8.01295C16.3008 10.1801 16.2892 10.4506 16.251 11.304C16.2377 11.9675 16.1124 12.6222 15.8787 13.2431C15.462 14.3156 14.6135 15.1628 13.5393 15.5788C12.9174 15.8112 12.2608 15.9372 11.5971 15.9505C10.7486 15.9993 10.4705 15.9993 8.30078 15.9993C6.13108 15.9993 5.86009 15.9877 5.00447 15.9505C4.3381 15.9292 3.6815 15.7926 3.06311 15.5513C1.98803 15.1362 1.13952 14.2881 0.722816 13.2165C0.489142 12.5947 0.363864 11.94 0.350537 11.2765C0.300781 10.4276 0.300781 10.1517 0.300781 7.98545C0.300781 5.81832 0.312332 5.54777 0.350537 4.6944C0.363864 4.03087 0.489142 3.37621 0.722816 2.75525C1.13863 1.68278 1.98714 0.834737 3.06222 0.420473C3.68328 0.186286 4.33987 0.0612081 5.00269 0.0479019C5.8512 0 6.1293 0 8.299 0C10.4687 0 10.7397 0.0106448 11.5953 0.0479019C12.2599 0.0620951 12.9165 0.187173 13.5376 0.420473ZM14.5185 12.7082C14.6962 12.2283 14.7886 11.7218 14.7948 11.2108V11.2117H14.8046C14.8428 10.3637 14.8428 10.1313 14.8428 7.97037C14.8428 5.80856 14.833 5.57172 14.7948 4.72811C14.7868 4.22248 14.6926 3.72128 14.5185 3.24758C14.2475 2.54945 13.6957 1.99769 12.9974 1.72891C12.522 1.55238 12.0209 1.45924 11.5136 1.45303C10.6544 1.40424 10.4323 1.40424 8.26702 1.40424C6.10176 1.40424 5.86453 1.41488 5.01957 1.45303C4.51402 1.46012 4.01113 1.55327 3.53668 1.72891C2.83565 1.99681 2.28035 2.54768 2.00936 3.24758C1.83166 3.72749 1.73925 4.23312 1.73303 4.74408C1.68594 5.60365 1.68594 5.82453 1.68594 7.98633C1.68594 10.1472 1.69483 10.385 1.73303 11.2277C1.74103 11.7333 1.83521 12.2345 2.00936 12.7082C2.28035 13.4072 2.83565 13.959 3.53668 14.226C4.01113 14.4025 4.51402 14.4957 5.01957 14.5019C5.87963 14.5507 6.10087 14.5507 8.26702 14.5507C10.4314 14.5507 10.6695 14.5409 11.5136 14.5019C12.0209 14.4948 12.522 14.4025 12.9974 14.226C13.6957 13.9581 14.2475 13.4064 14.5185 12.7082ZM12.5655 4.68402C13.0944 4.68402 13.5233 4.25588 13.5233 3.72775C13.5233 3.19962 13.0944 2.77148 12.5655 2.77148C12.0365 2.77148 11.6077 3.19962 11.6077 3.72775C11.6077 4.25588 12.0365 4.68402 12.5655 4.68402ZM8.2944 3.87891C6.02518 3.87891 4.18689 5.71515 4.18689 7.97985C4.18689 10.2454 6.02518 12.0817 8.2944 12.0817C10.5618 12.0817 12.4019 10.2454 12.4019 7.97985C12.4019 5.71515 10.5618 3.87891 8.2944 3.87891ZM8.2944 10.6446C6.82039 10.6446 5.62536 9.45151 5.62536 7.98074C5.62536 6.50908 6.82039 5.31685 8.2944 5.31685C9.76841 5.31685 10.9617 6.50908 10.9617 7.98074C10.9617 9.45151 9.76841 10.6446 8.2944 10.6446Z" fill="white"/>
</svg>
