<svg width="110" height="41" viewBox="0 0 110 41" fill="none" xmlns="http://www.w3.org/2000/svg">
<path d="M93.0361 24.9333L102.843 34.8H83.2289L93.0361 24.9333ZM62.9518 20.7333V34.8H48.9699L62.9518 20.7333ZM5.23494 15.9333H14.4458V34.8H5.23494V15.9333ZM20.9398 15.9333H33.3976L38.3675 20.9333L24.5843 34.8H20.9398V15.9333ZM79.9157 11.7333L88.4639 20.3333L79.9157 28.9333V11.7333ZM5.23494 5.39999H22.8614L26.9036 9.46666H5.23494V5.39999ZM32.0723 5.39999H53.8072L42.9398 16.3333L32.0723 5.39999ZM62.9518 5.39999H69.0482L39.8253 34.8H33.7289L62.9518 5.39999ZM69.4458 5.39999H73.4879V34.8H69.4458V5.39999ZM82.7651 5.39999H104.633V27.4L82.7651 5.39999ZM0 40.2H110V0H0V40.2Z" fill="white"/>
</svg>
