<svg width="15" height="15" viewBox="0 0 15 15" fill="none" xmlns="http://www.w3.org/2000/svg">
<path d="M1.75826 9.66646L0.966589 13.0831C0.939279 13.208 0.940215 13.3375 0.969329 13.4619C0.998442 13.5864 1.055 13.7028 1.13486 13.8027C1.21473 13.9025 1.31589 13.9832 1.43095 14.039C1.54602 14.0947 1.67208 14.124 1.79992 14.1248C1.85949 14.1308 1.91952 14.1308 1.97909 14.1248L5.41659 13.3331L12.0166 6.75813L8.33326 3.08313L1.75826 9.66646Z" fill="#999999"/>
<path d="M14.0915 3.46674L11.6331 1.0084C11.4715 0.847596 11.2528 0.757324 11.0248 0.757324C10.7968 0.757324 10.5781 0.847596 10.4165 1.0084L9.0498 2.37507L12.729 6.05424L14.0956 4.68757C14.1756 4.60719 14.239 4.51182 14.282 4.40693C14.3251 4.30204 14.3471 4.18968 14.3467 4.07629C14.3463 3.9629 14.3236 3.85069 14.2798 3.7461C14.236 3.6415 14.172 3.54657 14.0915 3.46674Z" fill="#999999"/>
</svg>
