<svg width="56" height="56" viewBox="0 0 56 56" fill="none" xmlns="http://www.w3.org/2000/svg">
<path d="M53.0833 55.4167H2.91666C1.63333 55.4167 0.583328 54.3667 0.583328 53.0833V10.6167C0.583328 9.33333 1.63333 8.28333 2.91666 8.28333H53.2C54.4833 8.28333 55.5333 9.33333 55.5333 10.6167V53.2C55.4167 54.3667 54.3667 55.4167 53.0833 55.4167ZM5.13333 50.8667H50.8667V12.8333H5.13333V50.8667Z" fill="#F03F3D"/>
<path d="M22.2832 30.8C22.1665 30.8 22.0498 30.8 21.9332 30.8C9.44984 28.8167 0.699844 21.2334 0.699844 12.3667C0.699844 11.0834 1.74984 10.0334 3.03318 10.0334C4.31651 10.0334 5.36651 11.0834 5.36651 12.3667C5.36651 18.9 12.5998 24.7334 22.6332 26.25C23.9165 26.4834 24.7332 27.65 24.4998 28.8167C24.2665 29.9834 23.3332 30.8 22.2832 30.8ZM33.2498 30.9167C32.0832 30.9167 31.1498 30.1 31.0332 28.9334C30.7998 27.65 31.7332 26.4834 33.0165 26.3667C43.2832 24.9667 50.8665 19.0167 50.8665 12.3667C50.8665 11.0834 51.9165 10.0334 53.1998 10.0334C54.4832 10.0334 55.5332 11.0834 55.5332 12.3667C55.5332 21.4667 46.5498 29.05 33.8332 30.9167C33.4832 30.8 33.3665 30.9167 33.2498 30.9167ZM36.3998 12.8334H19.5998C18.3165 12.8334 17.2665 11.7834 17.2665 10.5V6.65004C17.2665 3.26671 20.0665 0.583374 23.3332 0.583374H32.5498C35.9332 0.583374 38.6165 3.38337 38.6165 6.65004V10.5C38.7332 11.7834 37.6832 12.8334 36.3998 12.8334ZM21.8165 8.28337H34.0665V6.65004C34.0665 5.83337 33.3665 5.13337 32.5498 5.13337H23.3332C22.5165 5.13337 21.8165 5.83337 21.8165 6.65004V8.28337Z" fill="#F03F3D"/>
<path d="M32.6667 35.3499H23.3334C22.05 35.3499 21 34.2999 21 33.0166V25.3166C21 24.0333 22.05 22.9833 23.3334 22.9833H32.6667C33.95 22.9833 35 24.0333 35 25.3166V33.0166C35 34.2999 33.95 35.3499 32.6667 35.3499ZM25.55 30.7999H30.45V27.6499H25.55V30.7999Z" fill="#F03F3D"/>
</svg>
