<svg width="15" height="15" viewBox="0 0 15 15" fill="none" xmlns="http://www.w3.org/2000/svg">
<path d="M7.49952 1.25C6.26338 1.25 5.05501 1.61656 4.0272 2.30331C2.99939 2.99007 2.19832 3.96619 1.72527 5.10823C1.25222 6.25027 1.12845 7.50693 1.36961 8.71931C1.61076 9.9317 2.20602 11.0453 3.0801 11.9194C3.95418 12.7935 5.06782 13.3888 6.2802 13.6299C7.49258 13.8711 8.74925 13.7473 9.89129 13.2742C11.0333 12.8012 12.0094 12.0001 12.6962 10.9723C13.383 9.94451 13.7495 8.73613 13.7495 7.5C13.7495 6.67924 13.5879 5.86651 13.2738 5.10823C12.9597 4.34994 12.4993 3.66095 11.9189 3.08058C11.3386 2.50022 10.6496 2.03984 9.89129 1.72575C9.133 1.41166 8.32028 1.25 7.49952 1.25ZM7.49952 11.25C7.3759 11.25 7.25506 11.2133 7.15228 11.1447C7.0495 11.076 6.9694 10.9784 6.92209 10.8642C6.87479 10.75 6.86241 10.6243 6.88652 10.5031C6.91064 10.3818 6.97017 10.2705 7.05757 10.1831C7.14498 10.0956 7.25635 10.0361 7.37758 10.012C7.49882 9.98789 7.62449 10.0003 7.73869 10.0476C7.8529 10.0949 7.95051 10.175 8.01918 10.2778C8.08786 10.3805 8.12452 10.5014 8.12452 10.625C8.12452 10.7908 8.05867 10.9497 7.94146 11.0669C7.82425 11.1842 7.66528 11.25 7.49952 11.25ZM8.12452 8.025V8.75C8.12452 8.91576 8.05867 9.07473 7.94146 9.19194C7.82425 9.30915 7.66528 9.375 7.49952 9.375C7.33376 9.375 7.17478 9.30915 7.05757 9.19194C6.94036 9.07473 6.87452 8.91576 6.87452 8.75V7.5C6.87452 7.33424 6.94036 7.17527 7.05757 7.05806C7.17478 6.94085 7.33376 6.875 7.49952 6.875C7.68494 6.875 7.86619 6.82002 8.02036 6.717C8.17453 6.61399 8.2947 6.46757 8.36565 6.29627C8.43661 6.12496 8.45518 5.93646 8.419 5.7546C8.38283 5.57275 8.29354 5.4057 8.16243 5.27459C8.03132 5.14348 7.86427 5.05419 7.68241 5.01801C7.50056 4.98184 7.31206 5.00041 7.14075 5.07136C6.96944 5.14232 6.82303 5.26248 6.72001 5.41665C6.617 5.57082 6.56202 5.75208 6.56202 5.9375C6.56202 6.10326 6.49617 6.26223 6.37896 6.37944C6.26175 6.49665 6.10278 6.5625 5.93702 6.5625C5.77125 6.5625 5.61228 6.49665 5.49507 6.37944C5.37786 6.26223 5.31201 6.10326 5.31201 5.9375C5.31038 5.53144 5.4218 5.13294 5.63381 4.78661C5.84581 4.44028 6.15003 4.1598 6.5124 3.97657C6.87477 3.79333 7.281 3.71458 7.68559 3.74912C8.09018 3.78366 8.47717 3.93014 8.80324 4.17216C9.1293 4.41417 9.38157 4.74216 9.53179 5.11942C9.68202 5.49667 9.72427 5.90829 9.65383 6.3082C9.58338 6.70811 9.40301 7.08051 9.13291 7.38372C8.86281 7.68693 8.51365 7.90898 8.12452 8.025Z" fill="#999999"/>
</svg>
