<svg width="18" height="18" viewBox="0 0 18 18" fill="none" xmlns="http://www.w3.org/2000/svg">
<path d="M15.8571 17.0019C15.707 17.0021 15.5583 16.9726 15.4197 16.9151C15.281 16.8577 15.155 16.7734 15.049 16.6671L11.6201 13.2382C11.4103 13.023 11.2937 12.7337 11.2956 12.4331C11.2975 12.1325 11.4177 11.8447 11.6303 11.6321C11.8429 11.4196 12.1306 11.2993 12.4313 11.2974C12.7319 11.2955 13.0211 11.4121 13.2364 11.622L16.6653 15.0508C16.8251 15.2107 16.9339 15.4143 16.978 15.636C17.0221 15.8577 16.9995 16.0875 16.913 16.2963C16.8265 16.5052 16.68 16.6837 16.4921 16.8093C16.3041 16.9348 16.0832 17.0019 15.8571 17.0019Z" fill="white"/>
<path d="M8.14212 15.2843C6.96753 15.2843 5.81107 14.9946 4.77519 14.4408C3.73931 13.8871 2.85598 13.0865 2.20347 12.1098C1.55095 11.1331 1.14938 10.0106 1.03434 8.84165C0.919298 7.67271 1.09433 6.49343 1.54394 5.4083C1.99354 4.32317 2.70383 3.36567 3.61189 2.62063C4.51996 1.87559 5.59775 1.36601 6.74981 1.13703C7.90186 0.908048 9.09261 0.966737 10.2166 1.3079C11.3405 1.64905 12.363 2.26215 13.1934 3.09287C14.1929 4.09146 14.8737 5.36414 15.1496 6.74983C15.4255 8.13552 15.2841 9.57191 14.7433 10.8772C14.2025 12.1825 13.2866 13.298 12.1115 14.0825C10.9364 14.867 9.55501 15.2852 8.14212 15.2843ZM8.14212 3.28889C7.01885 3.2897 5.93061 3.67994 5.0628 4.39314C4.195 5.10633 3.60132 6.09835 3.38292 7.20018C3.16451 8.30201 3.33489 9.44548 3.86503 10.4358C4.39517 11.4261 5.25226 12.2019 6.29029 12.6311C7.32832 13.0604 8.48305 13.1164 9.55776 12.7897C10.6325 12.463 11.5607 11.7738 12.1842 10.8395C12.8077 9.90516 13.088 8.78356 12.9773 7.66576C12.8666 6.54796 12.3718 5.50312 11.5771 4.70925C11.1263 4.25794 10.5908 3.90013 10.0013 3.65637C9.41183 3.4126 8.78001 3.28768 8.14212 3.28878V3.28889Z" fill="white"/>
</svg>
