<svg width="16" height="10" viewBox="0 0 16 10" fill="none" xmlns="http://www.w3.org/2000/svg">
<path d="M15.6332 0.976571C15.7449 0.605285 15.6331 0.333008 15.1046 0.333008H13.3535C12.908 0.333008 12.7044 0.568555 12.5926 0.827258C12.5926 0.827258 11.7023 2.99828 10.4407 4.40598C10.0335 4.81559 9.84747 4.94494 9.6255 4.94494C9.51451 4.94494 9.35322 4.81559 9.35322 4.4443V0.976571C9.35322 0.531027 9.22467 0.333008 8.85338 0.333008H6.10187C5.82401 0.333008 5.65633 0.539012 5.65633 0.735434C5.65633 1.15702 6.28711 1.25444 6.35179 2.44255V5.02C6.35179 5.58451 6.25039 5.68752 6.02682 5.68752C5.43356 5.68752 3.98993 3.5085 3.13318 1.0141C2.9663 0.52943 2.79782 0.333807 2.35068 0.333807H0.600446C0.0998083 0.333807 0 0.569354 0 0.828057C0 1.29276 0.59326 3.59234 2.76349 6.6337C4.21031 8.7105 6.24719 9.83634 8.10282 9.83634C9.21509 9.83634 9.35242 9.58642 9.35242 9.15525V7.58547C9.35242 7.08563 9.45862 6.98502 9.81074 6.98502C10.0694 6.98502 10.515 7.11597 11.5538 8.11645C12.7403 9.30297 12.9367 9.83554 13.6035 9.83554H15.3537C15.8535 9.83554 16.1034 9.58562 15.9597 9.09217C15.8024 8.60111 15.2355 7.88649 14.4834 7.04091C14.0745 6.55864 13.4637 6.03964 13.2777 5.78014C13.0182 5.44558 13.0932 5.29786 13.2777 5.00084C13.2777 5.00084 15.4112 1.99781 15.6332 0.976571Z" fill="white"/>
</svg>
